<?xml version="1.0"?>
<svg xmlns="http://www.w3.org/2000/svg" xmlns:xlink="http://www.w3.org/1999/xlink" xmlns:svgjs="http://svgjs.com/svgjs" version="1.1" width="512" height="512" x="0" y="0" viewBox="0 0 512 512" style="enable-background:new 0 0 512 512" xml:space="preserve" class=""><g><g xmlns="http://www.w3.org/2000/svg"><path d="m220 88.645v-1.225c17.459-6.192 30-22.865 30-42.42 0-24.813-20.187-45-45-45h-140c-24.813 0-45 20.187-45 45 0 19.555 12.541 36.228 30 42.42v1.225c0 18.792-7.318 36.46-20.606 49.749-18.955 18.954-29.394 44.155-29.394 70.961v257.645c0 24.813 20.187 45 45 45h180c24.813 0 45-20.187 45-45v-257.645c0-26.806-10.439-52.007-29.394-70.962-13.288-13.288-20.606-30.956-20.606-49.748zm-155-58.645h140c8.271 0 15 6.729 15 15s-6.729 15-15 15h-140c-8.271 0-15-6.729-15-15s6.729-15 15-15zm-35 179.355c0-18.792 7.318-36.46 20.606-49.749 18.636-18.635 29.04-43.306 29.385-69.606h110.018c.345 26.3 10.75 50.971 29.385 69.606 11.305 11.305 18.269 25.785 20.102 41.426-39.544.669-78.263 11.735-112.213 32.105-29.433 17.66-63.002 27.226-97.283 27.807zm210 257.645c0 8.271-6.729 15-15 15h-180c-8.271 0-15-6.729-15-15v-176.028c39.719-.583 78.623-11.653 112.717-32.11 29.433-17.659 63.001-27.225 97.283-27.806z" fill="#2a92cb" data-original="#000000" style="" class=""/><path d="m397 0c-63.411 0-115 51.589-115 115s51.589 115 115 115 115-51.589 115-115-51.589-115-115-115zm0 200c-46.869 0-85-38.131-85-85 0-18.028 5.658-34.75 15.268-48.519l118.251 118.251c-13.769 9.61-30.491 15.268-48.519 15.268zm69.732-36.481-118.251-118.251c13.769-9.61 30.491-15.268 48.519-15.268 46.869 0 85 38.131 85 85 0 18.028-5.658 34.75-15.268 48.519z" fill="#2a92cb" data-original="#000000" style="" class=""/></g></g></svg>
